<?xml version="1.0" encoding="UTF-8"?>
<svg xmlns="http://www.w3.org/2000/svg" viewBox="0 0 761.00 330.00" width="761" height="330">
  <path d="M 275.00 2.00 L 274.00 3.00 L 273.00 3.00 L 272.00 3.00 L 271.00 4.00 L 270.00 4.00 L 269.00 4.00 L 268.00 5.00 L 267.00 5.00 L 266.00 5.00 L 265.00 6.00 L 264.00 6.00 L 263.00 7.00 L 262.00 7.00 L 261.00 8.00 L 260.00 8.00 L 259.00 9.00 L 258.00 9.00 L 257.00 10.00 L 256.00 11.00 L 255.00 11.00 L 254.00 12.00 L 253.00 13.00 L 252.00 13.00 L 251.00 14.00 L 250.00 15.00 L 249.00 16.00 L 248.00 16.00 L 247.00 17.00 L 246.00 18.00 L 245.00 19.00 L 244.00 20.00 L 243.00 21.00 L 242.00 21.00 L 241.00 22.00 L 240.00 23.00 L 239.00 24.00 L 238.00 25.00 L 237.00 26.00 L 236.00 27.00 L 235.00 28.00 L 234.00 29.00 L 233.00 30.00 L 232.00 31.00 L 231.00 32.00 L 230.00 33.00 L 229.00 34.00 L 228.00 35.00 L 228.00 36.00 L 227.00 37.00 L 226.00 38.00 L 225.00 39.00 L 224.00 40.00 L 223.00 41.00 L 223.00 42.00 L 222.00 43.00 L 221.00 44.00 L 220.00 45.00 L 219.00 46.00 L 219.00 47.00 L 218.00 48.00 L 217.00 49.00 L 217.00 50.00 L 216.00 51.00 L 215.00 52.00 L 214.00 53.00 L 214.00 54.00 L 213.00 55.00 L 212.00 56.00 L 212.00 57.00 L 211.00 58.00 L 210.00 59.00 L 210.00 60.00 L 209.00 61.00 L 208.00 62.00 L 208.00 63.00 L 207.00 64.00 L 206.00 65.00 L 206.00 66.00 L 205.00 67.00 L 204.00 68.00 L 204.00 69.00 L 203.00 70.00 L 202.00 71.00 L 202.00 72.00 L 201.00 73.00 L 201.00 74.00 L 200.00 75.00 L 199.00 76.00 L 199.00 77.00 L 198.00 78.00 L 198.00 79.00 L 197.00 80.00 L 196.00 81.00 L 196.00 82.00 L 195.00 83.00 L 195.00 84.00 L 194.00 85.00 L 194.00 86.00 L 193.00 87.00 L 192.00 88.00 L 192.00 89.00 L 191.00 90.00 L 191.00 91.00 L 190.00 92.00 L 190.00 93.00 L 189.00 94.00 L 189.00 95.00 L 188.00 96.00 L 188.00 97.00 L 187.00 98.00 L 187.00 99.00 L 186.00 100.00 L 186.00 101.00 L 185.00 102.00 L 185.00 103.00 L 184.00 104.00 L 184.00 105.00 L 183.00 106.00 L 183.00 107.00 L 182.00 108.00 L 182.00 109.00 L 181.00 110.00 L 181.00 111.00 L 180.00 112.00 L 180.00 113.00 L 179.00 114.00 L 179.00 115.00 L 179.00 116.00 L 178.00 117.00 L 178.00 118.00 L 177.00 119.00 L 177.00 120.00 L 176.00 121.00 L 176.00 122.00 L 175.00 123.00 L 175.00 124.00 L 175.00 125.00 L 174.00 126.00 L 174.00 127.00 L 173.00 128.00 L 173.00 129.00 L 172.00 130.00 L 172.00 131.00 L 172.00 132.00 L 171.00 133.00 L 171.00 134.00 L 170.00 135.00 L 170.00 136.00 L 169.00 137.00 L 168.00 136.00 L 168.00 135.00 L 168.00 134.00 L 168.00 133.00 L 168.00 132.00 L 168.00 131.00 L 168.00 130.00 L 168.00 129.00 L 169.00 128.00 L 169.00 127.00 L 169.00 126.00 L 169.00 125.00 L 169.00 124.00 L 169.00 123.00 L 169.00 122.00 L 170.00 121.00 L 170.00 120.00 L 170.00 119.00 L 170.00 118.00 L 170.00 117.00 L 170.00 116.00 L 170.00 115.00 L 171.00 114.00 L 171.00 113.00 L 171.00 112.00 L 171.00 111.00 L 171.00 110.00 L 171.00 109.00 L 171.00 108.00 L 171.00 107.00 L 172.00 106.00 L 172.00 105.00 L 172.00 104.00 L 172.00 103.00 L 172.00 102.00 L 172.00 101.00 L 172.00 100.00 L 172.00 99.00 L 173.00 98.00 L 173.00 97.00 L 173.00 96.00 L 173.00 95.00 L 173.00 94.00 L 173.00 93.00 L 173.00 92.00 L 173.00 91.00 L 174.00 90.00 L 174.00 89.00 L 174.00 88.00 L 174.00 87.00 L 174.00 86.00 L 174.00 85.00 L 174.00 84.00 L 174.00 83.00 L 173.00 82.00 L 173.00 81.00 L 172.00 80.00 L 171.00 79.00 L 170.00 78.00 L 169.00 77.00 L 168.00 77.00 L 167.00 77.00 L 166.00 76.00 L 165.00 76.00 L 164.00 77.00 L 163.00 77.00 L 162.00 77.00 L 161.00 77.00 L 160.00 78.00 L 159.00 78.00 L 158.00 79.00 L 157.00 79.00 L 156.00 80.00 L 155.00 80.00 L 154.00 81.00 L 153.00 82.00 L 152.00 82.00 L 151.00 83.00 L 150.00 84.00 L 149.00 85.00 L 148.00 86.00 L 147.00 87.00 L 146.00 88.00 L 145.00 89.00 L 144.00 90.00 L 143.00 91.00 L 143.00 92.00 L 142.00 93.00 L 141.00 94.00 L 141.00 95.00 L 140.00 96.00 L 140.00 97.00 L 139.00 98.00 L 139.00 99.00 L 138.00 100.00 L 137.00 100.00 L 136.00 101.00 L 135.00 101.00 L 134.00 102.00 L 133.00 102.00 L 132.00 102.00 L 131.00 103.00 L 130.00 103.00 L 129.00 104.00 L 128.00 104.00 L 127.00 104.00 L 126.00 105.00 L 125.00 105.00 L 124.00 105.00 L 123.00 106.00 L 122.00 106.00 L 121.00 106.00 L 120.00 107.00 L 119.00 107.00 L 118.00 107.00 L 117.00 108.00 L 116.00 108.00 L 115.00 108.00 L 114.00 108.00 L 113.00 109.00 L 112.00 109.00 L 111.00 109.00 L 110.00 110.00 L 109.00 110.00 L 108.00 110.00 L 107.00 110.00 L 106.00 111.00 L 105.00 111.00 L 104.00 111.00 L 103.00 111.00 L 102.00 112.00 L 101.00 112.00 L 100.00 112.00 L 99.00 112.00 L 98.00 112.00 L 97.00 113.00 L 96.00 113.00 L 95.00 113.00 L 94.00 113.00 L 93.00 114.00 L 92.00 114.00 L 91.00 114.00 L 90.00 114.00 L 89.00 114.00 L 88.00 115.00 L 87.00 115.00 L 86.00 115.00 L 85.00 115.00 L 84.00 115.00 L 83.00 115.00 L 82.00 116.00 L 81.00 116.00 L 80.00 116.00 L 79.00 116.00 L 78.00 116.00 L 77.00 116.00 L 76.00 116.00 L 75.00 117.00 L 74.00 117.00 L 73.00 117.00 L 72.00 117.00 L 71.00 117.00 L 70.00 117.00 L 69.00 117.00 L 68.00 117.00 L 67.00 117.00 L 66.00 118.00 L 65.00 118.00 L 64.00 118.00 L 63.00 118.00 L 62.00 118.00 L 61.00 118.00 L 60.00 118.00 L 59.00 118.00 L 58.00 118.00 L 57.00 118.00 L 56.00 118.00 L 55.00 119.00 L 54.00 119.00 L 53.00 119.00 L 52.00 119.00 L 51.00 119.00 L 50.00 119.00 L 49.00 119.00 L 48.00 119.00 L 47.00 119.00 L 46.00 119.00 L 45.00 119.00 L 44.00 119.00 L 43.00 119.00 L 42.00 119.00 L 41.00 119.00 L 40.00 119.00 L 39.00 119.00 L 38.00 119.00 L 37.00 119.00 L 36.00 119.00 L 35.00 119.00 L 34.00 119.00 L 33.00 119.00 L 32.00 119.00 L 31.00 119.00 L 30.00 119.00 L 29.00 119.00 L 28.00 119.00 L 27.00 119.00 L 26.00 119.00 L 25.00 119.00 L 24.00 119.00 L 23.00 119.00 L 22.00 119.00 L 21.00 119.00 L 20.00 119.00 L 19.00 119.00 L 18.00 119.00 L 17.00 119.00 L 16.00 119.00 L 15.00 119.00 L 14.00 119.00 L 13.00 119.00 L 12.00 119.00 L 11.00 119.00 L 10.00 119.00 L 9.00 119.00 L 8.00 119.00 L 7.00 119.00 L 6.00 119.00 L 5.00 119.00 L 4.00 119.00 L 3.00 119.00 L 2.00 119.00 L 2.00 120.00 L 2.00 121.00 L 2.00 122.00 L 3.00 122.00 L 4.00 123.00 L 5.00 123.00 L 6.00 123.00 L 7.00 123.00 L 8.00 123.00 L 9.00 123.00 L 10.00 123.00 L 11.00 123.00 L 12.00 123.00 L 13.00 123.00 L 14.00 123.00 L 15.00 123.00 L 16.00 123.00 L 17.00 123.00 L 18.00 123.00 L 19.00 123.00 L 20.00 123.00 L 21.00 123.00 L 22.00 123.00 L 23.00 123.00 L 24.00 123.00 L 25.00 123.00 L 26.00 123.00 L 27.00 123.00 L 28.00 123.00 L 29.00 123.00 L 30.00 123.00 L 31.00 123.00 L 32.00 123.00 L 33.00 123.00 L 34.00 123.00 L 35.00 123.00 L 36.00 123.00 L 37.00 123.00 L 38.00 123.00 L 39.00 123.00 L 40.00 123.00 L 41.00 123.00 L 42.00 123.00 L 43.00 123.00 L 44.00 123.00 L 45.00 123.00 L 46.00 123.00 L 47.00 123.00 L 48.00 123.00 L 49.00 123.00 L 50.00 123.00 L 51.00 123.00 L 52.00 122.00 L 53.00 122.00 L 54.00 122.00 L 55.00 122.00 L 56.00 122.00 L 57.00 122.00 L 58.00 122.00 L 59.00 122.00 L 60.00 122.00 L 61.00 122.00 L 62.00 122.00 L 63.00 122.00 L 64.00 122.00 L 65.00 122.00 L 66.00 122.00 L 67.00 121.00 L 68.00 121.00 L 69.00 121.00 L 70.00 121.00 L 71.00 121.00 L 72.00 121.00 L 73.00 121.00 L 74.00 121.00 L 75.00 120.00 L 76.00 120.00 L 77.00 120.00 L 78.00 120.00 L 79.00 120.00 L 80.00 120.00 L 81.00 120.00 L 82.00 120.00 L 83.00 119.00 L 84.00 119.00 L 85.00 119.00 L 86.00 119.00 L 87.00 118.00 L 88.00 118.00 L 89.00 118.00 L 90.00 118.00 L 91.00 118.00 L 92.00 118.00 L 93.00 118.00 L 94.00 117.00 L 95.00 117.00 L 96.00 117.00 L 97.00 117.00 L 98.00 117.00 L 99.00 116.00 L 100.00 116.00 L 101.00 116.00 L 102.00 116.00 L 103.00 115.00 L 104.00 115.00 L 105.00 115.00 L 106.00 115.00 L 107.00 114.00 L 108.00 114.00 L 109.00 114.00 L 110.00 113.00 L 111.00 113.00 L 112.00 113.00 L 113.00 113.00 L 114.00 112.00 L 115.00 112.00 L 116.00 112.00 L 117.00 111.00 L 118.00 111.00 L 119.00 111.00 L 120.00 110.00 L 121.00 110.00 L 122.00 110.00 L 123.00 109.00 L 124.00 109.00 L 125.00 109.00 L 126.00 108.00 L 127.00 108.00 L 128.00 107.00 L 129.00 107.00 L 130.00 106.00 L 131.00 106.00 L 132.00 106.00 L 133.00 105.00 L 134.00 105.00 L 135.00 104.00 L 136.00 104.00 L 137.00 105.00 L 137.00 106.00 L 137.00 107.00 L 137.00 108.00 L 137.00 109.00 L 136.00 110.00 L 136.00 111.00 L 136.00 112.00 L 136.00 113.00 L 136.00 114.00 L 136.00 115.00 L 136.00 116.00 L 135.00 117.00 L 135.00 118.00 L 135.00 119.00 L 135.00 120.00 L 135.00 121.00 L 135.00 122.00 L 134.00 123.00 L 134.00 124.00 L 134.00 125.00 L 134.00 126.00 L 134.00 127.00 L 134.00 128.00 L 134.00 129.00 L 133.00 130.00 L 133.00 131.00 L 133.00 132.00 L 133.00 133.00 L 133.00 134.00 L 133.00 135.00 L 133.00 136.00 L 132.00 137.00 L 132.00 138.00 L 132.00 139.00 L 132.00 140.00 L 132.00 141.00 L 132.00 142.00 L 131.00 143.00 L 131.00 144.00 L 131.00 145.00 L 131.00 146.00 L 131.00 147.00 L 131.00 148.00 L 131.00 149.00 L 130.00 150.00 L 130.00 151.00 L 130.00 152.00 L 130.00 153.00 L 130.00 154.00 L 130.00 155.00 L 130.00 156.00 L 129.00 157.00 L 129.00 158.00 L 129.00 159.00 L 129.00 160.00 L 129.00 161.00 L 129.00 162.00 L 129.00 163.00 L 128.00 164.00 L 128.00 165.00 L 128.00 166.00 L 128.00 167.00 L 128.00 168.00 L 128.00 169.00 L 128.00 170.00 L 127.00 171.00 L 127.00 172.00 L 127.00 173.00 L 127.00 174.00 L 127.00 175.00 L 127.00 176.00 L 127.00 177.00 L 127.00 178.00 L 126.00 179.00 L 126.00 180.00 L 126.00 181.00 L 126.00 182.00 L 126.00 183.00 L 126.00 184.00 L 126.00 185.00 L 125.00 186.00 L 125.00 187.00 L 125.00 188.00 L 125.00 189.00 L 125.00 190.00 L 125.00 191.00 L 125.00 192.00 L 125.00 193.00 L 124.00 194.00 L 124.00 195.00 L 124.00 196.00 L 124.00 197.00 L 124.00 198.00 L 124.00 199.00 L 124.00 200.00 L 124.00 201.00 L 124.00 202.00 L 123.00 203.00 L 123.00 204.00 L 123.00 205.00 L 123.00 206.00 L 123.00 207.00 L 123.00 208.00 L 123.00 209.00 L 123.00 210.00 L 123.00 211.00 L 123.00 212.00 L 122.00 213.00 L 122.00 214.00 L 122.00 215.00 L 122.00 216.00 L 122.00 217.00 L 122.00 218.00 L 122.00 219.00 L 122.00 220.00 L 122.00 221.00 L 121.00 222.00 L 121.00 223.00 L 121.00 224.00 L 121.00 225.00 L 121.00 226.00 L 121.00 227.00 L 121.00 228.00 L 121.00 229.00 L 120.00 230.00 L 120.00 231.00 L 120.00 232.00 L 120.00 233.00 L 120.00 234.00 L 120.00 235.00 L 120.00 236.00 L 120.00 237.00 L 119.00 238.00 L 119.00 239.00 L 119.00 240.00 L 119.00 241.00 L 119.00 242.00 L 119.00 243.00 L 119.00 244.00 L 119.00 245.00 L 119.00 246.00 L 118.00 247.00 L 118.00 248.00 L 118.00 249.00 L 118.00 250.00 L 118.00 251.00 L 118.00 252.00 L 118.00 253.00 L 118.00 254.00 L 117.00 255.00 L 117.00 256.00 L 117.00 257.00 L 117.00 258.00 L 117.00 259.00 L 118.00 260.00 L 118.00 261.00 L 118.00 262.00 L 119.00 263.00 L 120.00 264.00 L 120.00 265.00 L 121.00 266.00 L 122.00 267.00 L 123.00 268.00 L 124.00 269.00 L 125.00 269.00 L 126.00 270.00 L 127.00 271.00 L 128.00 271.00 L 129.00 271.00 L 130.00 271.00 L 131.00 271.00 L 132.00 271.00 L 133.00 271.00 L 134.00 271.00 L 135.00 270.00 L 136.00 270.00 L 137.00 269.00 L 138.00 269.00 L 139.00 268.00 L 140.00 267.00 L 140.00 266.00 L 141.00 265.00 L 142.00 264.00 L 143.00 263.00 L 144.00 262.00 L 144.00 261.00 L 145.00 260.00 L 145.00 259.00 L 145.00 258.00 L 146.00 257.00 L 146.00 256.00 L 146.00 255.00 L 147.00 254.00 L 147.00 253.00 L 147.00 252.00 L 147.00 251.00 L 147.00 250.00 L 148.00 249.00 L 148.00 248.00 L 148.00 247.00 L 148.00 246.00 L 148.00 245.00 L 148.00 244.00 L 149.00 243.00 L 149.00 242.00 L 149.00 241.00 L 149.00 240.00 L 149.00 239.00 L 150.00 238.00 L 150.00 237.00 L 150.00 236.00 L 150.00 235.00 L 150.00 234.00 L 151.00 233.00 L 151.00 232.00 L 151.00 231.00 L 151.00 230.00 L 151.00 229.00 L 152.00 228.00 L 152.00 227.00 L 152.00 226.00 L 152.00 225.00 L 152.00 224.00 L 152.00 223.00 L 153.00 222.00 L 153.00 221.00 L 153.00 220.00 L 153.00 219.00 L 153.00 218.00 L 154.00 217.00 L 154.00 216.00 L 154.00 215.00 L 154.00 214.00 L 154.00 213.00 L 155.00 212.00 L 155.00 211.00 L 155.00 210.00 L 155.00 209.00 L 155.00 208.00 L 155.00 207.00 L 156.00 206.00 L 156.00 205.00 L 156.00 204.00 L 156.00 203.00 L 156.00 202.00 L 157.00 201.00 L 157.00 200.00 L 157.00 199.00 L 157.00 198.00 L 158.00 197.00 L 158.00 196.00 L 158.00 195.00 L 159.00 194.00 L 159.00 193.00 L 159.00 192.00 L 160.00 191.00 L 160.00 190.00 L 160.00 189.00 L 161.00 188.00 L 161.00 187.00 L 161.00 186.00 L 161.00 185.00 L 162.00 184.00 L 162.00 183.00 L 162.00 182.00 L 163.00 181.00 L 163.00 180.00 L 163.00 179.00 L 164.00 178.00 L 164.00 177.00 L 164.00 176.00 L 165.00 175.00 L 165.00 174.00 L 165.00 173.00 L 166.00 172.00 L 166.00 171.00 L 166.00 170.00 L 167.00 169.00 L 167.00 168.00 L 167.00 167.00 L 168.00 166.00 L 168.00 165.00 L 168.00 164.00 L 169.00 163.00 L 169.00 162.00 L 170.00 161.00 L 170.00 160.00 L 170.00 159.00 L 171.00 158.00 L 171.00 157.00 L 171.00 156.00 L 172.00 155.00 L 172.00 154.00 L 172.00 153.00 L 173.00 152.00 L 173.00 151.00 L 174.00 150.00 L 174.00 149.00 L 174.00 148.00 L 175.00 147.00 L 175.00 146.00 L 176.00 145.00 L 176.00 144.00 L 176.00 143.00 L 177.00 142.00 L 177.00 141.00 L 178.00 140.00 L 178.00 139.00 L 178.00 138.00 L 179.00 137.00 L 179.00 136.00 L 180.00 135.00 L 180.00 134.00 L 180.00 133.00 L 181.00 132.00 L 181.00 131.00 L 182.00 130.00 L 182.00 129.00 L 182.00 128.00 L 183.00 127.00 L 183.00 126.00 L 184.00 125.00 L 184.00 124.00 L 185.00 123.00 L 185.00 122.00 L 186.00 121.00 L 186.00 120.00 L 187.00 119.00 L 187.00 118.00 L 188.00 117.00 L 188.00 116.00 L 189.00 115.00 L 189.00 114.00 L 189.00 113.00 L 190.00 112.00 L 190.00 111.00 L 191.00 110.00 L 191.00 109.00 L 192.00 108.00 L 192.00 107.00 L 193.00 106.00 L 193.00 105.00 L 194.00 104.00 L 194.00 103.00 L 195.00 102.00 L 195.00 101.00 L 196.00 100.00 L 196.00 99.00 L 197.00 98.00 L 197.00 97.00 L 198.00 96.00 L 198.00 95.00 L 199.00 94.00 L 199.00 93.00 L 200.00 92.00 L 200.00 91.00 L 201.00 90.00 L 202.00 89.00 L 202.00 88.00 L 203.00 87.00 L 203.00 86.00 L 204.00 85.00 L 204.00 84.00 L 205.00 83.00 L 206.00 82.00 L 206.00 81.00 L 207.00 80.00 L 207.00 79.00 L 208.00 78.00 L 208.00 77.00 L 209.00 76.00 L 210.00 75.00 L 210.00 74.00 L 211.00 73.00 L 211.00 72.00 L 212.00 71.00 L 213.00 70.00 L 213.00 69.00 L 214.00 68.00 L 215.00 67.00 L 215.00 66.00 L 216.00 65.00 L 217.00 64.00 L 217.00 63.00 L 218.00 62.00 L 219.00 61.00 L 219.00 60.00 L 220.00 59.00 L 221.00 58.00 L 221.00 57.00 L 222.00 56.00 L 223.00 55.00 L 224.00 54.00 L 224.00 53.00 L 225.00 52.00 L 226.00 51.00 L 227.00 50.00 L 227.00 49.00 L 228.00 48.00 L 229.00 47.00 L 230.00 46.00 L 230.00 45.00 L 231.00 44.00 L 232.00 43.00 L 233.00 42.00 L 234.00 41.00 L 235.00 40.00 L 236.00 39.00 L 237.00 38.00 L 237.00 37.00 L 238.00 36.00 L 239.00 35.00 L 240.00 34.00 L 241.00 33.00 L 242.00 32.00 L 243.00 31.00 L 244.00 30.00 L 245.00 29.00 L 246.00 28.00 L 247.00 27.00 L 248.00 27.00 L 249.00 26.00 L 250.00 25.00 L 251.00 24.00 L 252.00 23.00 L 253.00 23.00 L 254.00 22.00 L 255.00 21.00 L 256.00 20.00 L 257.00 20.00 L 258.00 19.00 L 259.00 19.00 L 260.00 18.00 L 261.00 17.00 L 262.00 17.00 L 263.00 16.00 L 264.00 16.00 L 265.00 15.00 L 266.00 15.00 L 267.00 14.00 L 268.00 14.00 L 269.00 13.00 L 270.00 13.00 L 271.00 13.00 L 272.00 12.00 L 273.00 12.00 L 274.00 12.00 L 275.00 12.00 L 276.00 12.00 L 277.00 11.00 L 278.00 11.00 L 279.00 11.00 L 280.00 11.00 L 281.00 11.00 L 282.00 11.00 L 283.00 11.00 L 284.00 11.00 L 285.00 11.00 L 286.00 12.00 L 287.00 12.00 L 288.00 12.00 L 289.00 12.00 L 290.00 13.00 L 291.00 13.00 L 292.00 13.00 L 293.00 14.00 L 294.00 15.00 L 295.00 16.00 L 296.00 17.00 L 296.00 18.00 L 297.00 19.00 L 297.00 20.00 L 297.00 21.00 L 298.00 22.00 L 298.00 23.00 L 298.00 24.00 L 298.00 25.00 L 298.00 26.00 L 299.00 27.00 L 299.00 28.00 L 299.00 29.00 L 299.00 30.00 L 299.00 31.00 L 299.00 32.00 L 299.00 33.00 L 299.00 34.00 L 299.00 35.00 L 299.00 36.00 L 299.00 37.00 L 299.00 38.00 L 299.00 39.00 L 299.00 40.00 L 299.00 41.00 L 299.00 42.00 L 299.00 43.00 L 299.00 44.00 L 299.00 45.00 L 299.00 46.00 L 299.00 47.00 L 299.00 48.00 L 298.00 49.00 L 298.00 50.00 L 298.00 51.00 L 298.00 52.00 L 298.00 53.00 L 298.00 54.00 L 298.00 55.00 L 298.00 56.00 L 298.00 57.00 L 298.00 58.00 L 298.00 59.00 L 298.00 60.00 L 297.00 61.00 L 297.00 62.00 L 297.00 63.00 L 297.00 64.00 L 297.00 65.00 L 297.00 66.00 L 297.00 67.00 L 296.00 68.00 L 296.00 69.00 L 296.00 70.00 L 296.00 71.00 L 296.00 72.00 L 296.00 73.00 L 296.00 74.00 L 295.00 75.00 L 295.00 76.00 L 295.00 77.00 L 295.00 78.00 L 295.00 79.00 L 295.00 80.00 L 294.00 81.00 L 294.00 82.00 L 294.00 83.00 L 294.00 84.00 L 294.00 85.00 L 294.00 86.00 L 293.00 87.00 L 293.00 88.00 L 293.00 89.00 L 293.00 90.00 L 293.00 91.00 L 293.00 92.00 L 292.00 93.00 L 292.00 94.00 L 292.00 95.00 L 292.00 96.00 L 292.00 97.00 L 292.00 98.00 L 291.00 99.00 L 291.00 100.00 L 291.00 101.00 L 291.00 102.00 L 291.00 103.00 L 290.00 104.00 L 290.00 105.00 L 290.00 106.00 L 290.00 107.00 L 290.00 108.00 L 290.00 109.00 L 289.00 110.00 L 289.00 111.00 L 289.00 112.00 L 289.00 113.00 L 289.00 114.00 L 288.00 115.00 L 288.00 116.00 L 288.00 117.00 L 288.00 118.00 L 288.00 119.00 L 288.00 120.00 L 287.00 121.00 L 287.00 122.00 L 287.00 123.00 L 287.00 124.00 L 287.00 125.00 L 286.00 126.00 L 286.00 127.00 L 286.00 128.00 L 286.00 129.00 L 286.00 130.00 L 286.00 131.00 L 285.00 132.00 L 285.00 133.00 L 285.00 134.00 L 285.00 135.00 L 285.00 136.00 L 284.00 137.00 L 284.00 138.00 L 284.00 139.00 L 284.00 140.00 L 284.00 141.00 L 284.00 142.00 L 283.00 143.00 L 283.00 144.00 L 283.00 145.00 L 283.00 146.00 L 283.00 147.00 L 283.00 148.00 L 282.00 149.00 L 282.00 150.00 L 282.00 151.00 L 282.00 152.00 L 282.00 153.00 L 281.00 154.00 L 281.00 155.00 L 281.00 156.00 L 281.00 157.00 L 281.00 158.00 L 281.00 159.00 L 280.00 160.00 L 280.00 161.00 L 280.00 162.00 L 280.00 163.00 L 280.00 164.00 L 280.00 165.00 L 279.00 166.00 L 279.00 167.00 L 279.00 168.00 L 279.00 169.00 L 279.00 170.00 L 279.00 171.00 L 278.00 172.00 L 278.00 173.00 L 278.00 174.00 L 278.00 175.00 L 278.00 176.00 L 278.00 177.00 L 277.00 178.00 L 277.00 179.00 L 277.00 180.00 L 277.00 181.00 L 277.00 182.00 L 277.00 183.00 L 277.00 184.00 L 276.00 185.00 L 276.00 186.00 L 276.00 187.00 L 276.00 188.00 L 276.00 189.00 L 276.00 190.00 L 275.00 191.00 L 275.00 192.00 L 275.00 193.00 L 275.00 194.00 L 275.00 195.00 L 275.00 196.00 L 275.00 197.00 L 274.00 198.00 L 274.00 199.00 L 274.00 200.00 L 274.00 201.00 L 274.00 202.00 L 274.00 203.00 L 274.00 204.00 L 274.00 205.00 L 274.00 206.00 L 274.00 207.00 L 273.00 208.00 L 273.00 209.00 L 273.00 210.00 L 273.00 211.00 L 273.00 212.00 L 273.00 213.00 L 273.00 214.00 L 273.00 215.00 L 273.00 216.00 L 273.00 217.00 L 272.00 218.00 L 272.00 219.00 L 272.00 220.00 L 272.00 221.00 L 272.00 222.00 L 272.00 223.00 L 272.00 224.00 L 272.00 225.00 L 272.00 226.00 L 272.00 227.00 L 272.00 228.00 L 272.00 229.00 L 272.00 230.00 L 272.00 231.00 L 272.00 232.00 L 271.00 233.00 L 271.00 234.00 L 271.00 235.00 L 271.00 236.00 L 271.00 237.00 L 271.00 238.00 L 271.00 239.00 L 271.00 240.00 L 271.00 241.00 L 271.00 242.00 L 271.00 243.00 L 271.00 244.00 L 271.00 245.00 L 272.00 246.00 L 272.00 247.00 L 272.00 248.00 L 272.00 249.00 L 272.00 250.00 L 272.00 251.00 L 272.00 252.00 L 272.00 253.00 L 272.00 254.00 L 272.00 255.00 L 272.00 256.00 L 273.00 257.00 L 273.00 258.00 L 273.00 259.00 L 273.00 260.00 L 273.00 261.00 L 273.00 262.00 L 274.00 263.00 L 274.00 264.00 L 274.00 265.00 L 274.00 266.00 L 275.00 267.00 L 275.00 268.00 L 275.00 269.00 L 276.00 270.00 L 276.00 271.00 L 276.00 272.00 L 277.00 273.00 L 277.00 274.00 L 278.00 275.00 L 278.00 276.00 L 279.00 277.00 L 279.00 278.00 L 280.00 279.00 L 281.00 280.00 L 282.00 281.00 L 282.00 282.00 L 283.00 283.00 L 284.00 284.00 L 285.00 285.00 L 286.00 285.00 L 287.00 286.00 L 288.00 287.00 L 289.00 287.00 L 290.00 288.00 L 291.00 288.00 L 292.00 289.00 L 293.00 289.00 L 294.00 290.00 L 295.00 290.00 L 296.00 290.00 L 297.00 291.00 L 298.00 291.00 L 299.00 291.00 L 300.00 292.00 L 301.00 292.00 L 302.00 292.00 L 303.00 292.00 L 304.00 292.00 L 305.00 292.00 L 306.00 292.00 L 307.00 292.00 L 308.00 292.00 L 309.00 292.00 L 310.00 291.00 L 311.00 291.00 L 312.00 291.00 L 313.00 290.00 L 314.00 290.00 L 315.00 289.00 L 316.00 289.00 L 317.00 288.00 L 318.00 288.00 L 319.00 287.00 L 320.00 287.00 L 321.00 286.00 L 322.00 285.00 L 323.00 285.00 L 324.00 284.00 L 325.00 283.00 L 326.00 283.00 L 327.00 282.00 L 328.00 281.00 L 329.00 281.00 L 330.00 280.00 L 331.00 279.00 L 332.00 278.00 L 333.00 277.00 L 334.00 276.00 L 335.00 276.00 L 336.00 275.00 L 337.00 274.00 L 338.00 273.00 L 339.00 272.00 L 340.00 272.00 L 341.00 271.00 L 342.00 270.00 L 343.00 269.00 L 344.00 268.00 L 345.00 267.00 L 346.00 267.00 L 347.00 266.00 L 348.00 265.00 L 349.00 264.00 L 350.00 263.00 L 351.00 262.00 L 352.00 261.00 L 353.00 260.00 L 354.00 259.00 L 355.00 258.00 L 356.00 257.00 L 357.00 256.00 L 358.00 255.00 L 359.00 254.00 L 360.00 253.00 L 361.00 252.00 L 362.00 251.00 L 363.00 250.00 L 364.00 249.00 L 365.00 248.00 L 366.00 247.00 L 367.00 246.00 L 368.00 245.00 L 369.00 244.00 L 370.00 243.00 L 371.00 242.00 L 372.00 241.00 L 373.00 240.00 L 374.00 239.00 L 375.00 238.00 L 376.00 237.00 L 377.00 236.00 L 378.00 235.00 L 379.00 234.00 L 380.00 233.00 L 380.00 232.00 L 381.00 231.00 L 382.00 230.00 L 383.00 229.00 L 384.00 228.00 L 385.00 227.00 L 386.00 226.00 L 387.00 225.00 L 388.00 224.00 L 389.00 223.00 L 390.00 222.00 L 390.00 221.00 L 391.00 220.00 L 392.00 219.00 L 393.00 218.00 L 394.00 217.00 L 395.00 216.00 L 396.00 215.00 L 396.00 214.00 L 397.00 213.00 L 398.00 212.00 L 399.00 211.00 L 400.00 210.00 L 401.00 209.00 L 402.00 208.00 L 403.00 207.00 L 403.00 206.00 L 404.00 205.00 L 405.00 204.00 L 406.00 203.00 L 407.00 202.00 L 408.00 201.00 L 408.00 200.00 L 409.00 199.00 L 410.00 198.00 L 411.00 197.00 L 411.00 196.00 L 412.00 195.00 L 413.00 194.00 L 414.00 193.00 L 415.00 192.00 L 416.00 191.00 L 416.00 190.00 L 417.00 189.00 L 418.00 188.00 L 419.00 187.00 L 420.00 186.00 L 420.00 185.00 L 421.00 184.00 L 422.00 183.00 L 423.00 182.00 L 424.00 181.00 L 424.00 180.00 L 425.00 179.00 L 426.00 178.00 L 427.00 177.00 L 427.00 176.00 L 428.00 175.00 L 429.00 174.00 L 430.00 173.00 L 431.00 172.00 L 431.00 171.00 L 432.00 170.00 L 433.00 169.00 L 434.00 168.00 L 435.00 167.00 L 435.00 166.00 L 436.00 165.00 L 437.00 164.00 L 438.00 163.00 L 438.00 162.00 L 439.00 161.00 L 440.00 160.00 L 441.00 159.00 L 442.00 158.00 L 442.00 157.00 L 443.00 156.00 L 444.00 155.00 L 445.00 154.00 L 445.00 153.00 L 446.00 152.00 L 447.00 151.00 L 448.00 150.00 L 448.00 149.00 L 449.00 148.00 L 450.00 147.00 L 451.00 146.00 L 451.00 145.00 L 452.00 144.00 L 453.00 143.00 L 454.00 142.00 L 454.00 141.00 L 455.00 140.00 L 456.00 139.00 L 457.00 138.00 L 458.00 137.00 L 458.00 136.00 L 459.00 135.00 L 460.00 135.00 L 461.00 135.00 L 462.00 135.00 L 463.00 136.00 L 464.00 137.00 L 465.00 137.00 L 466.00 138.00 L 467.00 139.00 L 468.00 139.00 L 469.00 140.00 L 470.00 141.00 L 471.00 142.00 L 472.00 142.00 L 473.00 143.00 L 474.00 144.00 L 475.00 145.00 L 476.00 145.00 L 477.00 146.00 L 478.00 147.00 L 479.00 148.00 L 480.00 148.00 L 481.00 149.00 L 482.00 150.00 L 483.00 150.00 L 484.00 151.00 L 485.00 152.00 L 486.00 153.00 L 487.00 153.00 L 488.00 154.00 L 489.00 155.00 L 490.00 156.00 L 491.00 157.00 L 491.00 158.00 L 491.00 159.00 L 491.00 160.00 L 490.00 161.00 L 489.00 162.00 L 489.00 163.00 L 488.00 164.00 L 488.00 165.00 L 487.00 166.00 L 487.00 167.00 L 486.00 168.00 L 486.00 169.00 L 485.00 170.00 L 485.00 171.00 L 484.00 172.00 L 483.00 173.00 L 483.00 174.00 L 482.00 175.00 L 482.00 176.00 L 481.00 177.00 L 481.00 178.00 L 481.00 179.00 L 480.00 180.00 L 480.00 181.00 L 479.00 182.00 L 479.00 183.00 L 478.00 184.00 L 478.00 185.00 L 477.00 186.00 L 477.00 187.00 L 477.00 188.00 L 476.00 189.00 L 476.00 190.00 L 475.00 191.00 L 475.00 192.00 L 474.00 193.00 L 474.00 194.00 L 474.00 195.00 L 473.00 196.00 L 473.00 197.00 L 472.00 198.00 L 472.00 199.00 L 472.00 200.00 L 471.00 201.00 L 471.00 202.00 L 470.00 203.00 L 470.00 204.00 L 470.00 205.00 L 469.00 206.00 L 469.00 207.00 L 469.00 208.00 L 468.00 209.00 L 468.00 210.00 L 467.00 211.00 L 467.00 212.00 L 467.00 213.00 L 467.00 214.00 L 466.00 215.00 L 466.00 216.00 L 466.00 217.00 L 465.00 218.00 L 465.00 219.00 L 465.00 220.00 L 464.00 221.00 L 464.00 222.00 L 464.00 223.00 L 464.00 224.00 L 463.00 225.00 L 463.00 226.00 L 463.00 227.00 L 463.00 228.00 L 462.00 229.00 L 462.00 230.00 L 462.00 231.00 L 462.00 232.00 L 462.00 233.00 L 461.00 234.00 L 461.00 235.00 L 461.00 236.00 L 461.00 237.00 L 461.00 238.00 L 460.00 239.00 L 460.00 240.00 L 460.00 241.00 L 460.00 242.00 L 460.00 243.00 L 459.00 244.00 L 459.00 245.00 L 459.00 246.00 L 459.00 247.00 L 459.00 248.00 L 459.00 249.00 L 459.00 250.00 L 459.00 251.00 L 459.00 252.00 L 458.00 253.00 L 458.00 254.00 L 458.00 255.00 L 458.00 256.00 L 458.00 257.00 L 458.00 258.00 L 458.00 259.00 L 458.00 260.00 L 458.00 261.00 L 458.00 262.00 L 458.00 263.00 L 458.00 264.00 L 458.00 265.00 L 458.00 266.00 L 458.00 267.00 L 458.00 268.00 L 458.00 269.00 L 458.00 270.00 L 458.00 271.00 L 458.00 272.00 L 459.00 273.00 L 459.00 274.00 L 459.00 275.00 L 459.00 276.00 L 459.00 277.00 L 459.00 278.00 L 459.00 279.00 L 459.00 280.00 L 460.00 281.00 L 460.00 282.00 L 460.00 283.00 L 460.00 284.00 L 461.00 285.00 L 461.00 286.00 L 461.00 287.00 L 461.00 288.00 L 462.00 289.00 L 462.00 290.00 L 462.00 291.00 L 463.00 292.00 L 463.00 293.00 L 463.00 294.00 L 464.00 295.00 L 464.00 296.00 L 465.00 297.00 L 465.00 298.00 L 465.00 299.00 L 466.00 300.00 L 466.00 301.00 L 467.00 302.00 L 467.00 303.00 L 468.00 304.00 L 468.00 305.00 L 469.00 306.00 L 469.00 307.00 L 470.00 308.00 L 471.00 309.00 L 472.00 310.00 L 472.00 311.00 L 473.00 312.00 L 474.00 313.00 L 475.00 314.00 L 476.00 315.00 L 477.00 316.00 L 478.00 317.00 L 479.00 318.00 L 480.00 319.00 L 481.00 319.00 L 482.00 320.00 L 483.00 321.00 L 484.00 321.00 L 485.00 322.00 L 486.00 323.00 L 487.00 323.00 L 488.00 324.00 L 489.00 324.00 L 490.00 325.00 L 491.00 325.00 L 492.00 326.00 L 493.00 326.00 L 494.00 327.00 L 495.00 327.00 L 496.00 327.00 L 497.00 328.00 L 498.00 328.00 L 499.00 328.00 L 500.00 328.00 L 501.00 328.00 L 502.00 328.00 L 503.00 328.00 L 504.00 328.00 L 505.00 328.00 L 506.00 328.00 L 507.00 328.00 L 508.00 328.00 L 509.00 328.00 L 510.00 328.00 L 511.00 327.00 L 512.00 327.00 L 513.00 327.00 L 514.00 327.00 L 515.00 326.00 L 516.00 326.00 L 517.00 326.00 L 518.00 325.00 L 519.00 325.00 L 520.00 325.00 L 521.00 324.00 L 522.00 324.00 L 523.00 323.00 L 524.00 323.00 L 525.00 322.00 L 526.00 322.00 L 527.00 321.00 L 528.00 321.00 L 529.00 320.00 L 530.00 320.00 L 531.00 319.00 L 532.00 319.00 L 533.00 318.00 L 534.00 317.00 L 535.00 317.00 L 536.00 316.00 L 537.00 316.00 L 538.00 315.00 L 539.00 314.00 L 540.00 314.00 L 541.00 313.00 L 542.00 312.00 L 543.00 312.00 L 544.00 311.00 L 545.00 310.00 L 546.00 309.00 L 547.00 309.00 L 548.00 308.00 L 549.00 307.00 L 550.00 306.00 L 551.00 305.00 L 552.00 305.00 L 553.00 304.00 L 554.00 303.00 L 555.00 302.00 L 556.00 301.00 L 557.00 301.00 L 558.00 300.00 L 559.00 299.00 L 560.00 298.00 L 561.00 297.00 L 562.00 296.00 L 563.00 295.00 L 564.00 294.00 L 565.00 294.00 L 566.00 293.00 L 567.00 292.00 L 568.00 291.00 L 569.00 290.00 L 570.00 289.00 L 571.00 288.00 L 572.00 287.00 L 573.00 286.00 L 574.00 285.00 L 575.00 284.00 L 576.00 283.00 L 577.00 282.00 L 578.00 281.00 L 579.00 280.00 L 580.00 279.00 L 581.00 278.00 L 582.00 277.00 L 583.00 276.00 L 584.00 275.00 L 585.00 274.00 L 586.00 273.00 L 587.00 272.00 L 587.00 271.00 L 588.00 270.00 L 589.00 269.00 L 590.00 268.00 L 591.00 267.00 L 592.00 266.00 L 593.00 265.00 L 594.00 264.00 L 595.00 263.00 L 596.00 262.00 L 597.00 261.00 L 598.00 260.00 L 599.00 259.00 L 600.00 258.00 L 600.00 257.00 L 601.00 256.00 L 602.00 255.00 L 603.00 254.00 L 604.00 253.00 L 605.00 252.00 L 605.00 251.00 L 606.00 250.00 L 607.00 249.00 L 608.00 248.00 L 609.00 247.00 L 610.00 246.00 L 610.00 245.00 L 611.00 244.00 L 612.00 243.00 L 613.00 242.00 L 614.00 241.00 L 615.00 240.00 L 615.00 239.00 L 616.00 238.00 L 617.00 237.00 L 618.00 236.00 L 619.00 235.00 L 619.00 234.00 L 620.00 233.00 L 621.00 232.00 L 622.00 231.00 L 623.00 230.00 L 623.00 229.00 L 624.00 228.00 L 625.00 227.00 L 626.00 226.00 L 627.00 225.00 L 627.00 224.00 L 628.00 223.00 L 629.00 222.00 L 630.00 221.00 L 631.00 220.00 L 631.00 219.00 L 632.00 218.00 L 633.00 217.00 L 634.00 216.00 L 634.00 215.00 L 635.00 214.00 L 636.00 213.00 L 637.00 212.00 L 637.00 211.00 L 638.00 210.00 L 639.00 209.00 L 640.00 208.00 L 641.00 207.00 L 641.00 206.00 L 642.00 205.00 L 643.00 204.00 L 644.00 203.00 L 644.00 202.00 L 645.00 201.00 L 646.00 200.00 L 647.00 199.00 L 647.00 198.00 L 648.00 197.00 L 649.00 196.00 L 650.00 195.00 L 650.00 194.00 L 651.00 193.00 L 652.00 192.00 L 652.00 191.00 L 653.00 190.00 L 654.00 189.00 L 655.00 188.00 L 655.00 187.00 L 656.00 186.00 L 657.00 185.00 L 658.00 184.00 L 658.00 183.00 L 659.00 182.00 L 660.00 181.00 L 660.00 180.00 L 661.00 179.00 L 662.00 178.00 L 663.00 177.00 L 663.00 176.00 L 664.00 175.00 L 665.00 174.00 L 666.00 173.00 L 666.00 172.00 L 667.00 171.00 L 668.00 170.00 L 669.00 169.00 L 669.00 168.00 L 670.00 167.00 L 671.00 166.00 L 671.00 165.00 L 672.00 164.00 L 673.00 163.00 L 674.00 162.00 L 674.00 161.00 L 675.00 160.00 L 676.00 159.00 L 676.00 158.00 L 677.00 157.00 L 678.00 156.00 L 679.00 155.00 L 679.00 154.00 L 680.00 153.00 L 681.00 152.00 L 681.00 151.00 L 682.00 150.00 L 683.00 149.00 L 683.00 148.00 L 684.00 147.00 L 685.00 146.00 L 686.00 145.00 L 686.00 144.00 L 687.00 143.00 L 688.00 142.00 L 688.00 141.00 L 689.00 140.00 L 690.00 139.00 L 691.00 138.00 L 691.00 137.00 L 692.00 136.00 L 693.00 135.00 L 693.00 134.00 L 694.00 133.00 L 695.00 132.00 L 696.00 131.00 L 696.00 130.00 L 697.00 129.00 L 698.00 128.00 L 699.00 128.00 L 700.00 127.00 L 701.00 127.00 L 702.00 126.00 L 703.00 126.00 L 704.00 126.00 L 705.00 125.00 L 706.00 125.00 L 707.00 125.00 L 708.00 124.00 L 709.00 124.00 L 710.00 124.00 L 711.00 123.00 L 712.00 123.00 L 713.00 123.00 L 714.00 122.00 L 715.00 122.00 L 716.00 122.00 L 717.00 121.00 L 718.00 121.00 L 719.00 121.00 L 720.00 121.00 L 721.00 120.00 L 722.00 120.00 L 723.00 120.00 L 724.00 119.00 L 725.00 119.00 L 726.00 119.00 L 727.00 119.00 L 728.00 118.00 L 729.00 118.00 L 730.00 118.00 L 731.00 118.00 L 732.00 117.00 L 733.00 117.00 L 734.00 117.00 L 735.00 117.00 L 736.00 116.00 L 737.00 116.00 L 738.00 116.00 L 739.00 116.00 L 740.00 116.00 L 741.00 115.00 L 742.00 115.00 L 743.00 115.00 L 744.00 115.00 L 745.00 115.00 L 746.00 115.00 L 747.00 114.00 L 748.00 114.00 L 749.00 114.00 L 750.00 114.00 L 751.00 114.00 L 752.00 114.00 L 753.00 113.00 L 754.00 113.00 L 755.00 113.00 L 756.00 113.00 L 757.00 113.00 L 758.00 113.00 L 759.00 113.00 L 759.00 112.00 L 759.00 111.00 L 759.00 110.00 L 759.00 109.00 L 759.00 108.00 L 758.00 109.00 L 757.00 109.00 L 756.00 109.00 L 755.00 109.00 L 754.00 109.00 L 753.00 109.00 L 752.00 109.00 L 751.00 109.00 L 750.00 110.00 L 749.00 110.00 L 748.00 110.00 L 747.00 110.00 L 746.00 110.00 L 745.00 111.00 L 744.00 111.00 L 743.00 111.00 L 742.00 111.00 L 741.00 111.00 L 740.00 112.00 L 739.00 112.00 L 738.00 112.00 L 737.00 112.00 L 736.00 112.00 L 735.00 113.00 L 734.00 113.00 L 733.00 113.00 L 732.00 113.00 L 731.00 114.00 L 730.00 114.00 L 729.00 114.00 L 728.00 114.00 L 727.00 115.00 L 726.00 115.00 L 725.00 115.00 L 724.00 116.00 L 723.00 116.00 L 722.00 116.00 L 721.00 116.00 L 720.00 117.00 L 719.00 117.00 L 718.00 117.00 L 717.00 118.00 L 716.00 118.00 L 715.00 118.00 L 714.00 119.00 L 713.00 119.00 L 712.00 120.00 L 711.00 120.00 L 710.00 120.00 L 709.00 121.00 L 708.00 121.00 L 707.00 122.00 L 706.00 122.00 L 705.00 122.00 L 704.00 123.00 L 703.00 123.00 L 702.00 124.00 L 701.00 124.00 L 700.00 124.00 L 699.00 124.00 L 698.00 124.00 L 697.00 124.00 L 696.00 123.00 L 695.00 123.00 L 694.00 123.00 L 693.00 124.00 L 692.00 124.00 L 691.00 125.00 L 690.00 125.00 L 689.00 126.00 L 688.00 127.00 L 687.00 128.00 L 686.00 129.00 L 686.00 130.00 L 685.00 131.00 L 684.00 132.00 L 684.00 133.00 L 683.00 134.00 L 682.00 135.00 L 682.00 136.00 L 681.00 137.00 L 680.00 138.00 L 679.00 139.00 L 679.00 140.00 L 678.00 141.00 L 677.00 142.00 L 677.00 143.00 L 676.00 144.00 L 675.00 145.00 L 675.00 146.00 L 674.00 147.00 L 673.00 148.00 L 672.00 149.00 L 672.00 150.00 L 671.00 151.00 L 670.00 152.00 L 670.00 153.00 L 669.00 154.00 L 668.00 155.00 L 668.00 156.00 L 667.00 157.00 L 666.00 158.00 L 665.00 159.00 L 665.00 160.00 L 664.00 161.00 L 663.00 162.00 L 663.00 163.00 L 662.00 164.00 L 661.00 165.00 L 660.00 166.00 L 660.00 167.00 L 659.00 168.00 L 658.00 169.00 L 658.00 170.00 L 657.00 171.00 L 656.00 172.00 L 656.00 173.00 L 655.00 174.00 L 654.00 175.00 L 653.00 176.00 L 653.00 177.00 L 652.00 178.00 L 651.00 179.00 L 650.00 180.00 L 650.00 181.00 L 649.00 182.00 L 648.00 183.00 L 647.00 184.00 L 647.00 185.00 L 646.00 186.00 L 645.00 187.00 L 644.00 188.00 L 644.00 189.00 L 643.00 190.00 L 642.00 191.00 L 642.00 192.00 L 641.00 193.00 L 640.00 194.00 L 639.00 195.00 L 639.00 196.00 L 638.00 197.00 L 637.00 198.00 L 636.00 199.00 L 636.00 200.00 L 635.00 201.00 L 634.00 202.00 L 633.00 203.00 L 633.00 204.00 L 632.00 205.00 L 631.00 206.00 L 630.00 207.00 L 630.00 208.00 L 629.00 209.00 L 628.00 210.00 L 628.00 211.00 L 627.00 212.00 L 626.00 213.00 L 625.00 214.00 L 624.00 215.00 L 624.00 216.00 L 623.00 217.00 L 622.00 218.00 L 621.00 219.00 L 621.00 220.00 L 620.00 221.00 L 619.00 222.00 L 618.00 223.00 L 617.00 224.00 L 617.00 225.00 L 616.00 226.00 L 615.00 227.00 L 614.00 228.00 L 614.00 229.00 L 613.00 230.00 L 612.00 231.00 L 611.00 232.00 L 610.00 233.00 L 610.00 234.00 L 609.00 235.00 L 608.00 236.00 L 607.00 237.00 L 606.00 238.00 L 605.00 239.00 L 605.00 240.00 L 604.00 241.00 L 603.00 242.00 L 602.00 243.00 L 602.00 244.00 L 601.00 245.00 L 600.00 246.00 L 599.00 247.00 L 598.00 248.00 L 597.00 249.00 L 596.00 250.00 L 596.00 251.00 L 595.00 252.00 L 594.00 253.00 L 593.00 254.00 L 592.00 255.00 L 591.00 256.00 L 590.00 257.00 L 590.00 258.00 L 589.00 259.00 L 588.00 260.00 L 587.00 261.00 L 586.00 262.00 L 585.00 263.00 L 584.00 264.00 L 583.00 265.00 L 582.00 266.00 L 581.00 267.00 L 581.00 268.00 L 580.00 269.00 L 579.00 270.00 L 578.00 271.00 L 577.00 272.00 L 576.00 273.00 L 575.00 274.00 L 574.00 275.00 L 573.00 276.00 L 572.00 277.00 L 571.00 278.00 L 570.00 279.00 L 569.00 280.00 L 568.00 281.00 L 567.00 282.00 L 566.00 283.00 L 565.00 284.00 L 564.00 285.00 L 563.00 286.00 L 562.00 287.00 L 561.00 288.00 L 560.00 289.00 L 559.00 290.00 L 558.00 291.00 L 557.00 292.00 L 556.00 293.00 L 555.00 294.00 L 554.00 294.00 L 553.00 295.00 L 552.00 296.00 L 551.00 297.00 L 550.00 298.00 L 549.00 298.00 L 548.00 299.00 L 547.00 300.00 L 546.00 301.00 L 545.00 302.00 L 544.00 302.00 L 543.00 303.00 L 542.00 304.00 L 541.00 304.00 L 540.00 305.00 L 539.00 306.00 L 538.00 307.00 L 537.00 307.00 L 536.00 308.00 L 535.00 309.00 L 534.00 309.00 L 533.00 310.00 L 532.00 310.00 L 531.00 311.00 L 530.00 311.00 L 529.00 312.00 L 528.00 312.00 L 527.00 313.00 L 526.00 313.00 L 525.00 314.00 L 524.00 314.00 L 523.00 315.00 L 522.00 315.00 L 521.00 315.00 L 520.00 316.00 L 519.00 316.00 L 518.00 316.00 L 517.00 317.00 L 516.00 317.00 L 515.00 317.00 L 514.00 317.00 L 513.00 317.00 L 512.00 317.00 L 511.00 317.00 L 510.00 317.00 L 509.00 317.00 L 508.00 317.00 L 507.00 317.00 L 506.00 317.00 L 505.00 317.00 L 504.00 317.00 L 503.00 317.00 L 502.00 317.00 L 501.00 316.00 L 500.00 316.00 L 499.00 315.00 L 498.00 315.00 L 497.00 314.00 L 496.00 314.00 L 495.00 313.00 L 494.00 312.00 L 493.00 311.00 L 493.00 310.00 L 492.00 309.00 L 492.00 308.00 L 491.00 307.00 L 491.00 306.00 L 491.00 305.00 L 491.00 304.00 L 490.00 303.00 L 490.00 302.00 L 490.00 301.00 L 490.00 300.00 L 490.00 299.00 L 490.00 298.00 L 490.00 297.00 L 490.00 296.00 L 490.00 295.00 L 490.00 294.00 L 489.00 293.00 L 489.00 292.00 L 489.00 291.00 L 489.00 290.00 L 490.00 289.00 L 490.00 288.00 L 490.00 287.00 L 490.00 286.00 L 490.00 285.00 L 490.00 284.00 L 490.00 283.00 L 490.00 282.00 L 491.00 281.00 L 491.00 280.00 L 491.00 279.00 L 491.00 278.00 L 491.00 277.00 L 491.00 276.00 L 492.00 275.00 L 492.00 274.00 L 492.00 273.00 L 492.00 272.00 L 492.00 271.00 L 493.00 270.00 L 493.00 269.00 L 493.00 268.00 L 493.00 267.00 L 494.00 266.00 L 494.00 265.00 L 494.00 264.00 L 494.00 263.00 L 495.00 262.00 L 495.00 261.00 L 495.00 260.00 L 495.00 259.00 L 496.00 258.00 L 496.00 257.00 L 496.00 256.00 L 496.00 255.00 L 497.00 254.00 L 497.00 253.00 L 497.00 252.00 L 497.00 251.00 L 498.00 250.00 L 498.00 249.00 L 498.00 248.00 L 499.00 247.00 L 499.00 246.00 L 499.00 245.00 L 500.00 244.00 L 500.00 243.00 L 500.00 242.00 L 501.00 241.00 L 501.00 240.00 L 501.00 239.00 L 501.00 238.00 L 502.00 237.00 L 502.00 236.00 L 503.00 235.00 L 503.00 234.00 L 503.00 233.00 L 503.00 232.00 L 504.00 231.00 L 504.00 230.00 L 504.00 229.00 L 505.00 228.00 L 505.00 227.00 L 505.00 226.00 L 506.00 225.00 L 506.00 224.00 L 506.00 223.00 L 507.00 222.00 L 507.00 221.00 L 507.00 220.00 L 508.00 219.00 L 508.00 218.00 L 508.00 217.00 L 509.00 216.00 L 509.00 215.00 L 509.00 214.00 L 510.00 213.00 L 510.00 212.00 L 510.00 211.00 L 511.00 210.00 L 511.00 209.00 L 511.00 208.00 L 512.00 207.00 L 512.00 206.00 L 512.00 205.00 L 513.00 204.00 L 513.00 203.00 L 513.00 202.00 L 513.00 201.00 L 514.00 200.00 L 514.00 199.00 L 514.00 198.00 L 515.00 197.00 L 515.00 196.00 L 515.00 195.00 L 515.00 194.00 L 516.00 193.00 L 516.00 192.00 L 516.00 191.00 L 517.00 190.00 L 517.00 189.00 L 517.00 188.00 L 517.00 187.00 L 517.00 186.00 L 518.00 185.00 L 518.00 184.00 L 518.00 183.00 L 518.00 182.00 L 519.00 181.00 L 519.00 180.00 L 519.00 179.00 L 519.00 178.00 L 519.00 177.00 L 519.00 176.00 L 519.00 175.00 L 519.00 174.00 L 519.00 173.00 L 519.00 172.00 L 519.00 171.00 L 519.00 170.00 L 518.00 169.00 L 518.00 168.00 L 518.00 167.00 L 517.00 166.00 L 516.00 165.00 L 515.00 164.00 L 514.00 163.00 L 513.00 162.00 L 512.00 162.00 L 511.00 161.00 L 510.00 160.00 L 509.00 159.00 L 508.00 159.00 L 507.00 158.00 L 506.00 157.00 L 505.00 157.00 L 504.00 156.00 L 503.00 155.00 L 502.00 154.00 L 501.00 154.00 L 500.00 153.00 L 499.00 152.00 L 498.00 152.00 L 497.00 151.00 L 496.00 150.00 L 495.00 149.00 L 494.00 149.00 L 493.00 148.00 L 492.00 147.00 L 491.00 146.00 L 490.00 146.00 L 489.00 145.00 L 488.00 144.00 L 487.00 143.00 L 486.00 143.00 L 485.00 142.00 L 484.00 141.00 L 483.00 140.00 L 482.00 140.00 L 481.00 139.00 L 480.00 138.00 L 479.00 138.00 L 478.00 137.00 L 477.00 136.00 L 476.00 135.00 L 475.00 134.00 L 474.00 134.00 L 473.00 133.00 L 472.00 132.00 L 471.00 131.00 L 470.00 131.00 L 469.00 130.00 L 468.00 129.00 L 467.00 128.00 L 466.00 127.00 L 465.00 126.00 L 465.00 125.00 L 465.00 124.00 L 465.00 123.00 L 465.00 122.00 L 466.00 121.00 L 467.00 120.00 L 467.00 119.00 L 468.00 118.00 L 469.00 117.00 L 469.00 116.00 L 470.00 115.00 L 471.00 114.00 L 471.00 113.00 L 472.00 112.00 L 473.00 111.00 L 473.00 110.00 L 474.00 109.00 L 475.00 108.00 L 475.00 107.00 L 476.00 106.00 L 477.00 105.00 L 477.00 104.00 L 478.00 103.00 L 479.00 102.00 L 479.00 101.00 L 480.00 100.00 L 480.00 99.00 L 481.00 98.00 L 482.00 97.00 L 482.00 96.00 L 483.00 95.00 L 484.00 94.00 L 484.00 93.00 L 485.00 92.00 L 485.00 91.00 L 486.00 90.00 L 487.00 89.00 L 487.00 88.00 L 488.00 87.00 L 489.00 86.00 L 489.00 85.00 L 490.00 84.00 L 490.00 83.00 L 491.00 82.00 L 492.00 81.00 L 492.00 80.00 L 493.00 79.00 L 493.00 78.00 L 494.00 77.00 L 494.00 76.00 L 495.00 75.00 L 496.00 74.00 L 496.00 73.00 L 497.00 72.00 L 497.00 71.00 L 498.00 70.00 L 498.00 69.00 L 499.00 68.00 L 499.00 67.00 L 500.00 66.00 L 500.00 65.00 L 501.00 64.00 L 501.00 63.00 L 502.00 62.00 L 502.00 61.00 L 503.00 60.00 L 503.00 59.00 L 503.00 58.00 L 504.00 57.00 L 504.00 56.00 L 505.00 55.00 L 505.00 54.00 L 506.00 53.00 L 506.00 52.00 L 506.00 51.00 L 507.00 50.00 L 507.00 49.00 L 507.00 48.00 L 508.00 47.00 L 508.00 46.00 L 508.00 45.00 L 509.00 44.00 L 509.00 43.00 L 509.00 42.00 L 510.00 41.00 L 510.00 40.00 L 510.00 39.00 L 510.00 38.00 L 511.00 37.00 L 511.00 36.00 L 511.00 35.00 L 511.00 34.00 L 511.00 33.00 L 511.00 32.00 L 511.00 31.00 L 511.00 30.00 L 511.00 29.00 L 511.00 28.00 L 511.00 27.00 L 511.00 26.00 L 511.00 25.00 L 511.00 24.00 L 510.00 23.00 L 510.00 22.00 L 510.00 21.00 L 509.00 20.00 L 509.00 19.00 L 509.00 18.00 L 508.00 17.00 L 507.00 16.00 L 507.00 15.00 L 506.00 14.00 L 505.00 13.00 L 504.00 12.00 L 503.00 11.00 L 502.00 10.00 L 501.00 9.00 L 500.00 9.00 L 499.00 8.00 L 498.00 7.00 L 497.00 7.00 L 496.00 6.00 L 495.00 6.00 L 494.00 5.00 L 493.00 5.00 L 492.00 4.00 L 491.00 4.00 L 490.00 4.00 L 489.00 3.00 L 488.00 3.00 L 487.00 3.00 L 486.00 3.00 L 485.00 3.00 L 484.00 2.00 L 483.00 2.00 L 482.00 2.00 L 481.00 2.00 L 480.00 2.00 L 479.00 2.00 L 478.00 2.00 L 477.00 2.00 L 476.00 2.00 L 475.00 2.00 L 474.00 2.00 L 473.00 2.00 L 472.00 2.00 L 471.00 2.00 L 470.00 2.00 L 469.00 3.00 L 468.00 3.00 L 467.00 3.00 L 466.00 3.00 L 465.00 4.00 L 464.00 4.00 L 463.00 4.00 L 462.00 5.00 L 461.00 5.00 L 460.00 5.00 L 459.00 6.00 L 458.00 6.00 L 457.00 7.00 L 456.00 7.00 L 455.00 8.00 L 454.00 9.00 L 453.00 9.00 L 452.00 10.00 L 451.00 10.00 L 450.00 11.00 L 449.00 12.00 L 448.00 13.00 L 447.00 13.00 L 446.00 14.00 L 445.00 15.00 L 444.00 16.00 L 443.00 17.00 L 442.00 18.00 L 441.00 19.00 L 440.00 20.00 L 439.00 21.00 L 438.00 22.00 L 437.00 23.00 L 437.00 24.00 L 436.00 25.00 L 435.00 26.00 L 434.00 27.00 L 433.00 28.00 L 433.00 29.00 L 432.00 30.00 L 432.00 31.00 L 431.00 32.00 L 430.00 33.00 L 430.00 34.00 L 429.00 35.00 L 429.00 36.00 L 428.00 37.00 L 428.00 38.00 L 427.00 39.00 L 427.00 40.00 L 426.00 41.00 L 426.00 42.00 L 425.00 43.00 L 425.00 44.00 L 424.00 45.00 L 424.00 46.00 L 424.00 47.00 L 423.00 48.00 L 423.00 49.00 L 423.00 50.00 L 422.00 51.00 L 422.00 52.00 L 422.00 53.00 L 422.00 54.00 L 421.00 55.00 L 421.00 56.00 L 421.00 57.00 L 421.00 58.00 L 421.00 59.00 L 420.00 60.00 L 420.00 61.00 L 420.00 62.00 L 420.00 63.00 L 420.00 64.00 L 420.00 65.00 L 420.00 66.00 L 419.00 67.00 L 419.00 68.00 L 419.00 69.00 L 419.00 70.00 L 419.00 71.00 L 419.00 72.00 L 419.00 73.00 L 419.00 74.00 L 419.00 75.00 L 419.00 76.00 L 419.00 77.00 L 420.00 78.00 L 420.00 79.00 L 420.00 80.00 L 420.00 81.00 L 420.00 82.00 L 420.00 83.00 L 420.00 84.00 L 421.00 85.00 L 421.00 86.00 L 421.00 87.00 L 421.00 88.00 L 422.00 89.00 L 422.00 90.00 L 422.00 91.00 L 423.00 92.00 L 423.00 93.00 L 423.00 94.00 L 424.00 95.00 L 424.00 96.00 L 424.00 97.00 L 425.00 98.00 L 425.00 99.00 L 426.00 100.00 L 426.00 101.00 L 427.00 102.00 L 427.00 103.00 L 428.00 104.00 L 429.00 105.00 L 429.00 106.00 L 430.00 107.00 L 431.00 108.00 L 431.00 109.00 L 432.00 110.00 L 433.00 111.00 L 434.00 112.00 L 434.00 113.00 L 435.00 114.00 L 436.00 115.00 L 437.00 116.00 L 438.00 117.00 L 439.00 117.00 L 440.00 118.00 L 441.00 119.00 L 442.00 120.00 L 443.00 120.00 L 444.00 121.00 L 445.00 122.00 L 446.00 123.00 L 447.00 124.00 L 448.00 125.00 L 449.00 125.00 L 450.00 126.00 L 451.00 127.00 L 452.00 128.00 L 453.00 129.00 L 453.00 130.00 L 452.00 131.00 L 452.00 132.00 L 451.00 133.00 L 450.00 134.00 L 450.00 135.00 L 449.00 136.00 L 448.00 137.00 L 447.00 138.00 L 447.00 139.00 L 446.00 140.00 L 445.00 141.00 L 444.00 142.00 L 443.00 143.00 L 443.00 144.00 L 442.00 145.00 L 441.00 146.00 L 440.00 147.00 L 440.00 148.00 L 439.00 149.00 L 438.00 150.00 L 437.00 151.00 L 437.00 152.00 L 436.00 153.00 L 435.00 154.00 L 434.00 155.00 L 434.00 156.00 L 433.00 157.00 L 432.00 158.00 L 431.00 159.00 L 431.00 160.00 L 430.00 161.00 L 429.00 162.00 L 428.00 163.00 L 427.00 164.00 L 427.00 165.00 L 426.00 166.00 L 425.00 167.00 L 424.00 168.00 L 424.00 169.00 L 423.00 170.00 L 422.00 171.00 L 421.00 172.00 L 421.00 173.00 L 420.00 174.00 L 419.00 175.00 L 418.00 176.00 L 417.00 177.00 L 417.00 178.00 L 416.00 179.00 L 415.00 180.00 L 414.00 181.00 L 414.00 182.00 L 413.00 183.00 L 412.00 184.00 L 411.00 185.00 L 410.00 186.00 L 409.00 187.00 L 409.00 188.00 L 408.00 189.00 L 407.00 190.00 L 406.00 191.00 L 406.00 192.00 L 405.00 193.00 L 404.00 194.00 L 403.00 195.00 L 402.00 196.00 L 402.00 197.00 L 401.00 198.00 L 400.00 199.00 L 399.00 200.00 L 398.00 201.00 L 397.00 202.00 L 397.00 203.00 L 396.00 204.00 L 395.00 205.00 L 394.00 206.00 L 393.00 207.00 L 393.00 208.00 L 392.00 209.00 L 391.00 210.00 L 390.00 211.00 L 389.00 212.00 L 388.00 213.00 L 387.00 214.00 L 387.00 215.00 L 386.00 216.00 L 385.00 217.00 L 384.00 218.00 L 383.00 219.00 L 382.00 220.00 L 381.00 221.00 L 381.00 222.00 L 380.00 223.00 L 379.00 224.00 L 378.00 225.00 L 377.00 226.00 L 376.00 227.00 L 375.00 228.00 L 374.00 229.00 L 373.00 230.00 L 372.00 231.00 L 371.00 232.00 L 371.00 233.00 L 370.00 234.00 L 369.00 235.00 L 368.00 236.00 L 367.00 237.00 L 366.00 238.00 L 365.00 239.00 L 364.00 240.00 L 363.00 241.00 L 362.00 242.00 L 361.00 243.00 L 360.00 244.00 L 359.00 245.00 L 358.00 246.00 L 357.00 247.00 L 356.00 248.00 L 355.00 249.00 L 354.00 250.00 L 353.00 251.00 L 352.00 252.00 L 351.00 253.00 L 350.00 254.00 L 349.00 255.00 L 348.00 256.00 L 347.00 256.00 L 346.00 257.00 L 345.00 258.00 L 344.00 259.00 L 343.00 260.00 L 342.00 261.00 L 341.00 262.00 L 340.00 263.00 L 339.00 264.00 L 338.00 264.00 L 337.00 265.00 L 336.00 266.00 L 335.00 267.00 L 334.00 267.00 L 333.00 268.00 L 332.00 269.00 L 331.00 270.00 L 330.00 271.00 L 329.00 271.00 L 328.00 272.00 L 327.00 273.00 L 326.00 273.00 L 325.00 274.00 L 324.00 275.00 L 323.00 275.00 L 322.00 276.00 L 321.00 277.00 L 320.00 277.00 L 319.00 278.00 L 318.00 278.00 L 317.00 279.00 L 316.00 279.00 L 315.00 280.00 L 314.00 280.00 L 313.00 281.00 L 312.00 281.00 L 311.00 282.00 L 310.00 282.00 L 309.00 282.00 L 308.00 283.00 L 307.00 283.00 L 306.00 283.00 L 305.00 283.00 L 304.00 283.00 L 303.00 283.00 L 302.00 283.00 L 301.00 283.00 L 300.00 283.00 L 299.00 283.00 L 298.00 282.00 L 297.00 282.00 L 296.00 281.00 L 296.00 280.00 L 295.00 279.00 L 295.00 278.00 L 294.00 277.00 L 294.00 276.00 L 294.00 275.00 L 294.00 274.00 L 293.00 273.00 L 293.00 272.00 L 293.00 271.00 L 293.00 270.00 L 293.00 269.00 L 293.00 268.00 L 293.00 267.00 L 293.00 266.00 L 293.00 265.00 L 293.00 264.00 L 293.00 263.00 L 293.00 262.00 L 293.00 261.00 L 293.00 260.00 L 293.00 259.00 L 293.00 258.00 L 293.00 257.00 L 293.00 256.00 L 293.00 255.00 L 294.00 254.00 L 294.00 253.00 L 294.00 252.00 L 294.00 251.00 L 294.00 250.00 L 294.00 249.00 L 294.00 248.00 L 294.00 247.00 L 295.00 246.00 L 295.00 245.00 L 295.00 244.00 L 295.00 243.00 L 295.00 242.00 L 295.00 241.00 L 296.00 240.00 L 296.00 239.00 L 296.00 238.00 L 296.00 237.00 L 296.00 236.00 L 297.00 235.00 L 297.00 234.00 L 297.00 233.00 L 297.00 232.00 L 297.00 231.00 L 297.00 230.00 L 298.00 229.00 L 298.00 228.00 L 298.00 227.00 L 298.00 226.00 L 298.00 225.00 L 299.00 224.00 L 299.00 223.00 L 299.00 222.00 L 299.00 221.00 L 299.00 220.00 L 300.00 219.00 L 300.00 218.00 L 300.00 217.00 L 300.00 216.00 L 300.00 215.00 L 301.00 214.00 L 301.00 213.00 L 301.00 212.00 L 301.00 211.00 L 301.00 210.00 L 302.00 209.00 L 302.00 208.00 L 302.00 207.00 L 302.00 206.00 L 302.00 205.00 L 303.00 204.00 L 303.00 203.00 L 303.00 202.00 L 303.00 201.00 L 304.00 200.00 L 304.00 199.00 L 304.00 198.00 L 304.00 197.00 L 304.00 196.00 L 305.00 195.00 L 305.00 194.00 L 305.00 193.00 L 305.00 192.00 L 306.00 191.00 L 306.00 190.00 L 306.00 189.00 L 306.00 188.00 L 306.00 187.00 L 307.00 186.00 L 307.00 185.00 L 307.00 184.00 L 307.00 183.00 L 307.00 182.00 L 308.00 181.00 L 308.00 180.00 L 308.00 179.00 L 308.00 178.00 L 309.00 177.00 L 309.00 176.00 L 309.00 175.00 L 309.00 174.00 L 309.00 173.00 L 310.00 172.00 L 310.00 171.00 L 310.00 170.00 L 310.00 169.00 L 311.00 168.00 L 311.00 167.00 L 311.00 166.00 L 311.00 165.00 L 311.00 164.00 L 312.00 163.00 L 312.00 162.00 L 312.00 161.00 L 312.00 160.00 L 313.00 159.00 L 313.00 158.00 L 313.00 157.00 L 313.00 156.00 L 313.00 155.00 L 313.00 154.00 L 314.00 153.00 L 314.00 152.00 L 314.00 151.00 L 314.00 150.00 L 314.00 149.00 L 315.00 148.00 L 315.00 147.00 L 315.00 146.00 L 315.00 145.00 L 315.00 144.00 L 315.00 143.00 L 316.00 142.00 L 316.00 141.00 L 316.00 140.00 L 316.00 139.00 L 316.00 138.00 L 317.00 137.00 L 317.00 136.00 L 317.00 135.00 L 317.00 134.00 L 317.00 133.00 L 318.00 132.00 L 318.00 131.00 L 318.00 130.00 L 318.00 129.00 L 318.00 128.00 L 318.00 127.00 L 318.00 126.00 L 318.00 125.00 L 319.00 124.00 L 319.00 123.00 L 319.00 122.00 L 319.00 121.00 L 319.00 120.00 L 319.00 119.00 L 319.00 118.00 L 320.00 117.00 L 320.00 116.00 L 320.00 115.00 L 320.00 114.00 L 320.00 113.00 L 320.00 112.00 L 320.00 111.00 L 321.00 110.00 L 321.00 109.00 L 321.00 108.00 L 321.00 107.00 L 321.00 106.00 L 321.00 105.00 L 321.00 104.00 L 321.00 103.00 L 321.00 102.00 L 322.00 101.00 L 322.00 100.00 L 322.00 99.00 L 322.00 98.00 L 322.00 97.00 L 322.00 96.00 L 322.00 95.00 L 322.00 94.00 L 322.00 93.00 L 322.00 92.00 L 322.00 91.00 L 322.00 90.00 L 323.00 89.00 L 323.00 88.00 L 323.00 87.00 L 323.00 86.00 L 323.00 85.00 L 323.00 84.00 L 323.00 83.00 L 323.00 82.00 L 323.00 81.00 L 323.00 80.00 L 323.00 79.00 L 323.00 78.00 L 323.00 77.00 L 323.00 76.00 L 323.00 75.00 L 323.00 74.00 L 323.00 73.00 L 323.00 72.00 L 323.00 71.00 L 323.00 70.00 L 323.00 69.00 L 323.00 68.00 L 323.00 67.00 L 323.00 66.00 L 323.00 65.00 L 322.00 64.00 L 322.00 63.00 L 322.00 62.00 L 322.00 61.00 L 322.00 60.00 L 322.00 59.00 L 322.00 58.00 L 322.00 57.00 L 322.00 56.00 L 321.00 55.00 L 321.00 54.00 L 321.00 53.00 L 321.00 52.00 L 321.00 51.00 L 321.00 50.00 L 321.00 49.00 L 320.00 48.00 L 320.00 47.00 L 320.00 46.00 L 320.00 45.00 L 319.00 44.00 L 319.00 43.00 L 319.00 42.00 L 319.00 41.00 L 319.00 40.00 L 318.00 39.00 L 318.00 38.00 L 318.00 37.00 L 317.00 36.00 L 317.00 35.00 L 317.00 34.00 L 316.00 33.00 L 316.00 32.00 L 316.00 31.00 L 315.00 30.00 L 315.00 29.00 L 314.00 28.00 L 314.00 27.00 L 313.00 26.00 L 313.00 25.00 L 312.00 24.00 L 312.00 23.00 L 311.00 22.00 L 310.00 21.00 L 310.00 20.00 L 309.00 19.00 L 308.00 18.00 L 307.00 17.00 L 307.00 16.00 L 306.00 15.00 L 305.00 14.00 L 304.00 13.00 L 303.00 12.00 L 302.00 11.00 L 301.00 10.00 L 300.00 9.00 L 299.00 8.00 L 298.00 7.00 L 297.00 7.00 L 296.00 6.00 L 295.00 5.00 L 294.00 5.00 L 293.00 4.00 L 292.00 4.00 L 291.00 4.00 L 290.00 3.00 L 289.00 3.00 L 288.00 3.00 L 287.00 2.00 L 286.00 2.00 L 285.00 2.00 L 284.00 2.00 L 283.00 2.00 L 282.00 2.00 L 281.00 2.00 L 280.00 2.00 L 279.00 2.00 L 278.00 2.00 L 277.00 2.00 L 276.00 2.00 Z" fill="#ffffff"/>
</svg>